<svg width="15" height="14" viewBox="0 0 15 14" fill="none" xmlns="http://www.w3.org/2000/svg">
<path d="M14.6414 7.16779C14.6414 6.69503 14.5957 6.20702 14.5194 5.74951H7.91602V8.44882H11.6981C11.5456 9.31809 11.0423 10.0806 10.2951 10.5686L12.5521 12.3224C13.8789 11.0871 14.6414 9.28759 14.6414 7.16779Z" fill="white"/>
<path d="M7.9167 14C9.80774 14 11.3938 13.3748 12.5528 12.3073L10.2958 10.5687C9.67049 10.9957 8.86222 11.2397 7.9167 11.2397C6.08666 11.2397 4.54638 10.0045 3.98211 8.35742L1.66406 10.1417C2.85359 12.5055 5.26314 14 7.9167 14Z" fill="white"/>
<path d="M3.98143 8.342C3.69167 7.47273 3.69167 6.52721 3.98143 5.65794L1.66338 3.8584C0.672104 5.84094 0.672104 8.17424 1.66338 10.1415L3.98143 8.342Z" fill="white"/>
<path d="M7.9167 2.77583C8.90797 2.76058 9.884 3.14184 10.6008 3.8281L12.5986 1.81506C11.3328 0.62553 9.65524 -0.0149842 7.9167 0.000266162C5.26314 0.000266162 2.85359 1.4948 1.66406 3.8586L3.98211 5.65814C4.54638 3.99586 6.08666 2.77583 7.9167 2.77583Z" fill="white"/>
</svg>
